# xmcd
#
# Track frame offsets: 
#        150
#        12721
#        25961
#        40544
#        55854
#        81191
#        100068
#        115736
#        127467
#        139502
#        155824
#        175048
#        197640
#        207824
#        222793
#        240453
#        254589
#        276065
#
# Disc length: 4079 seconds
#
# Revision: 0
# Processed by: cddbd v1.5.2PL0 Copyright (c) Steve Scherf et al.
# Submitted via: ExactAudioCopyFreeDBPlugin 1.0
#
DISCID=fe0fed12
DTITLE=Kings Of Kitchener - After The Rain
DYEAR=2011
DGENRE=Blues
TTITLE0=Old Cowhand
TTITLE1=Teenager In Love
TTITLE2=Sea Of Heartbreak
TTITLE3=Nadine
TTITLE4=Ice Cream Man
TTITLE5=Hillbilly Heaven
TTITLE6=Down The Road A Oiece
TTITLE7=After The Rain
TTITLE8=Jamaica
TTITLE9=Moscow
TTITLE10=Baby Don't Go
TTITLE11=Can't Catch Me
TTITLE12=The Passenger
TTITLE13=Remember Me
TTITLE14=Spiderman
TTITLE15=Jennifer
TTITLE16=Last Time
TTITLE17=Summertime Blues
EXTD=
EXTT0=
EXTT1=
EXTT2=
EXTT3=
EXTT4=
EXTT5=
EXTT6=
EXTT7=
EXTT8=
EXTT9=
EXTT10=
EXTT11=
EXTT12=
EXTT13=
EXTT14=
EXTT15=
EXTT16=
EXTT17=
PLAYORDER=
